<svg width="67" height="55" viewBox="0 0 67 55" fill="none" xmlns="http://www.w3.org/2000/svg">
<path d="M53.8922 6.09964C53.7436 6.63107 53.9144 7.46786 53.9787 7.96393C54.0474 8.49428 53.0961 8.96893 52.5516 8.99893C52.565 8.82338 52.514 8.64888 52.4075 8.50607C52.4062 8.6759 52.37 8.84379 52.301 9H47.7581C47.1859 7.95964 46.6991 6.53785 47.2247 5.06786C47.2514 4.77263 47.3677 4.49157 47.559 4.25998C47.7504 4.02838 48.0082 3.85655 48.3003 3.76607L50.7775 3C51.7544 3 52.953 3.13393 53.493 3.83679C53.732 4.16038 53.8921 4.53207 53.9613 4.92397C54.0304 5.31587 54.0068 5.71781 53.8922 6.09964V6.09964Z" fill="#2F2E41"/>
<path d="M57.4006 52.2063C57.4833 52.2093 57.5648 52.1873 57.6343 52.1434C57.7038 52.0996 57.7577 52.0359 57.7889 51.961C57.8201 51.8862 57.827 51.8038 57.8086 51.725C57.7903 51.6461 57.7476 51.5748 57.6863 51.5205C57.6757 51.4811 57.6682 51.4528 57.6576 51.4134C57.7348 51.2164 57.8704 51.0464 58.047 50.9252C58.2237 50.804 58.4334 50.7371 58.6493 50.7331C58.8651 50.7291 59.0772 50.7881 59.2585 50.9027C59.4398 51.0173 59.5819 51.1821 59.6666 51.3761C60.1553 52.4651 60.7851 53.5912 60.4891 54.7984C62.4806 50.5705 61.7384 45.3413 58.6995 41.7698C57.8649 41.3306 57.1842 40.5429 57 39.6226C57.4122 39.7548 57.9214 39.4235 57.6083 39.0034C57.4728 38.843 57.336 38.6839 57.2005 38.5235C58.7456 36.8847 60.6303 39.4202 58.9336 41.6285C59.5023 42.3118 59.9964 43.0513 60.4078 43.835C60.3064 42.9997 60.4094 42.1528 60.7084 41.364C61.012 40.6287 61.5884 40.0064 62.0952 39.3684C62.7113 38.591 63.9983 38.935 64.0918 39.9134C63.518 40.1036 63.4512 40.9166 64.1106 41.0216C63.9559 42.8447 62.7544 44.5299 61.0848 45.3443C61.7207 47.0368 61.9802 48.8422 61.846 50.6404C62.1216 48.5378 64.4235 48.0068 66.0278 47.1572C66.1298 47.0919 66.249 47.0571 66.3709 47.0569C66.4929 47.0567 66.6122 47.0912 66.7144 47.1562C66.8166 47.2211 66.8972 47.3137 66.9465 47.4227C66.9957 47.5317 67.0114 47.6523 66.9917 47.7699C66.77 47.8603 66.5581 47.9721 66.359 48.1036C66.2658 48.1661 66.1946 48.2553 66.1552 48.3589C66.1159 48.4625 66.1103 48.5755 66.1392 48.6824C66.1682 48.7892 66.2302 48.8847 66.3169 48.9557C66.4035 49.0268 66.5106 49.0699 66.6233 49.0792C65.8297 51.0522 63.7412 52.3915 61.583 52.4042C61.3842 53.2867 61.092 54.1467 60.7113 54.9702L57.5081 55C57.4963 54.9653 57.4856 54.9295 57.4749 54.8948C57.7716 54.9103 58.0691 54.8902 58.3607 54.835C57.5675 53.9348 56.9563 53.4775 57.4005 52.2064L57.4006 52.2063Z" fill="#F2F2F2"/>
<path d="M52 53H50.6449L50 48H52V53Z" fill="#FFB6B6"/>
<path d="M52 55H51.181L51.0348 54.1917L50.6604 55H48.4883C48.3842 55 48.2828 54.9652 48.1989 54.9007C48.1151 54.8362 48.0531 54.7454 48.0221 54.6415C47.9911 54.5376 47.9927 54.426 48.0267 54.3231C48.0606 54.2202 48.1252 54.1314 48.2109 54.0695L49.9454 52.8172V52L51.77 52.1138L52 55Z" fill="#2F2E41"/>
<path d="M53 44.1671L52.2576 45L49 42.2292L50.0956 41L53 44.1671Z" fill="#FFB6B6"/>
<path d="M56 45.6056L55.3402 46.1333L54.5907 45.7363L54.9209 46.4688L53.171 47.8683C53.0872 47.9354 52.9783 47.9796 52.8603 47.9945C52.7423 48.0093 52.6214 47.994 52.5152 47.9509C52.4091 47.9077 52.3232 47.8389 52.2701 47.7545C52.217 47.6701 52.1995 47.5745 52.2202 47.4817L52.6387 45.603L52 45.1064L53.5588 44L56 45.6056Z" fill="#2F2E41"/>
<path d="M44.2467 19.3379L47.8348 13.6567C47.9861 13.4156 48.0361 13.1249 47.9739 12.8474C47.9118 12.57 47.7425 12.3279 47.5026 12.1736V12.1736C47.3785 12.0937 47.2393 12.0398 47.0936 12.0153C46.9479 11.9907 46.7987 11.9959 46.6551 12.0305C46.5115 12.0652 46.3765 12.1286 46.2583 12.2169C46.1401 12.3052 46.0412 12.4165 45.9677 12.5441L42.4223 18.5592L40.1131 22.1238C39.921 22.0904 39.7232 22.1167 39.5466 22.1991C39.3701 22.2814 39.2232 22.4159 39.1261 22.5842C39.029 22.7525 38.9863 22.9465 39.0038 23.1398C39.0214 23.3331 39.0983 23.5163 39.2241 23.6646C39.3499 23.8129 39.5185 23.919 39.7071 23.9686C39.8956 24.0182 40.0949 24.0088 40.2779 23.9418C40.4609 23.8747 40.6188 23.7532 40.73 23.5938C40.8412 23.4343 40.9003 23.2447 40.8995 23.0506L44.2467 19.3379Z" fill="#FFB6B6"/>
<path d="M46.91 15.4095L47.156 15.3544C47.1229 15.2827 47.109 15.2007 47.1163 15.1195C47.1237 15.0382 47.1518 14.9615 47.1969 14.8998C47.242 14.8381 47.302 14.7942 47.3688 14.7742C47.4355 14.7542 47.5059 14.7589 47.5703 14.7877C47.2739 14.4208 47.4178 13.8167 47.6085 13.3615C47.7463 13.0325 47.9012 12.7074 47.9687 12.3488C48.071 11.8044 47.939 11.1454 47.3274 11.0151C47.0773 10.9687 46.8215 11.0301 46.6064 11.1884C46.2219 11.458 46.1355 11.3406 45.893 11.7747L45.7547 12.0796C45.5772 12.4097 45.3653 12.712 45.1241 12.9792C44.9516 13.1831 44.8126 13.4233 44.7142 13.6876C44.7013 13.7203 44.6821 13.749 44.6583 13.7715C44.5637 13.8583 44.4351 13.8626 44.3166 13.8811C44.1672 13.9045 43.9962 13.9796 44.0001 14.1996C44.0022 14.2522 44.0135 14.3037 44.0333 14.3508C44.053 14.398 44.0808 14.4398 44.1148 14.4736C44.7457 15.1291 45.4841 15.6225 46.2834 15.923C46.461 15.9896 46.6605 16.0448 46.8275 15.947C46.9946 15.8493 47.0662 15.5298 46.91 15.4095Z" fill="#0F21FF"/>
<path d="M52 26L45.209 25.9L45 24.4L45.6269 21H50.9552L52 26Z" fill="#FFB6B6"/>
<path d="M36.5385 30H9.46154C8.80892 29.9993 8.18325 29.7453 7.72178 29.2938C7.26031 28.8423 7.00073 28.2301 7 27.5916V12.4084C7.00074 11.7699 7.26032 11.1577 7.72179 10.7062C8.18325 10.2547 8.80893 10.0007 9.46154 10H36.5385C37.1911 10.0007 37.8167 10.2547 38.2782 10.7062C38.7397 11.1577 38.9993 11.7699 39 12.4084V27.5916C38.9993 28.2301 38.7397 28.8423 38.2782 29.2938C37.8168 29.7453 37.1911 29.9993 36.5385 30Z" fill="#FEB469"/>
<path d="M36.5385 30H9.46154C8.80892 29.9993 8.18325 29.7453 7.72178 29.2938C7.26031 28.8423 7.00073 28.2301 7 27.5916V12.4084C7.00074 11.7699 7.26032 11.1577 7.72179 10.7062C8.18325 10.2547 8.80893 10.0007 9.46154 10H36.5385C37.1911 10.0007 37.8167 10.2547 38.2782 10.7062C38.7397 11.1577 38.9993 11.7699 39 12.4084V27.5916C38.9993 28.2301 38.7397 28.8423 38.2782 29.2938C37.8167 29.7453 37.1911 29.9993 36.5385 30V30ZM9.46154 10.2094C8.86567 10.2101 8.2944 10.442 7.87306 10.8542C7.45172 11.2664 7.21472 11.8254 7.21405 12.4084V27.5916C7.21472 28.1746 7.45173 28.7335 7.87307 29.1458C8.29441 29.558 8.86567 29.7899 9.46154 29.7906H36.5385C37.1343 29.7899 37.7056 29.558 38.1269 29.1458C38.5483 28.7335 38.7853 28.1746 38.786 27.5916V12.4084C38.7853 11.8254 38.5483 11.2664 38.1269 10.8542C37.7056 10.442 37.1343 10.2101 36.5385 10.2094H9.46154Z" fill="#E6E6E6"/>
<path d="M36.5 5C36.7761 5 37 4.55228 37 4C37 3.44772 36.7761 3 36.5 3C36.2239 3 36 3.44772 36 4C36 4.55228 36.2239 5 36.5 5Z" fill="#F2F2F2"/>
<path d="M1 21C1.55228 21 2 20.3284 2 19.5C2 18.6716 1.55228 18 1 18C0.447715 18 0 18.6716 0 19.5C0 20.3284 0.447715 21 1 21Z" fill="#F2F2F2"/>
<path d="M21 37C21.5523 37 22 36.5523 22 36C22 35.4477 21.5523 35 21 35C20.4477 35 20 35.4477 20 36C20 36.5523 20.4477 37 21 37Z" fill="#F2F2F2"/>
<path d="M14.9098 28H12.0902C12.0663 28 12.0434 27.9473 12.0264 27.8535C12.0095 27.7598 12 27.6326 12 27.5C12 27.3674 12.0095 27.2402 12.0264 27.1464C12.0434 27.0527 12.0663 27 12.0902 27H14.9098C14.9337 27 14.9566 27.0527 14.9736 27.1464C14.9905 27.2402 15 27.3674 15 27.5C15 27.6326 14.9905 27.7598 14.9736 27.8535C14.9566 27.9473 14.9337 28 14.9098 28Z" fill="white"/>
<path d="M33.8797 28H30.1203C30.0884 28 30.0578 27.9473 30.0352 27.8535C30.0127 27.7598 30 27.6326 30 27.5C30 27.3674 30.0127 27.2402 30.0352 27.1464C30.0578 27.0527 30.0884 27 30.1203 27H33.8797C33.9116 27 33.9422 27.0527 33.9648 27.1464C33.9873 27.2402 34 27.3674 34 27.5C34 27.6326 33.9873 27.7598 33.9648 27.8535C33.9422 27.9473 33.9116 28 33.8797 28V28Z" fill="white"/>
<path d="M27.8797 28H24.1203C24.0884 28 24.0578 27.9473 24.0352 27.8535C24.0127 27.7598 24 27.6326 24 27.5C24 27.3674 24.0127 27.2402 24.0352 27.1464C24.0578 27.0527 24.0884 27 24.1203 27H27.8797C27.9116 27 27.9422 27.0527 27.9648 27.1464C27.9873 27.2402 28 27.3674 28 27.5C28 27.6326 27.9873 27.7598 27.9648 27.8535C27.9422 27.9473 27.9116 28 27.8797 28V28Z" fill="white"/>
<path d="M21.8797 28H18.1203C18.0884 28 18.0578 27.9473 18.0352 27.8535C18.0127 27.7598 18 27.6326 18 27.5C18 27.3674 18.0127 27.2402 18.0352 27.1464C18.0578 27.0527 18.0884 27 18.1203 27H21.8797C21.9116 27 21.9422 27.0527 21.9648 27.1464C21.9873 27.2402 22 27.3674 22 27.5C22 27.6326 21.9873 27.7598 21.9648 27.8535C21.9422 27.9473 21.9116 28 21.8797 28Z" fill="white"/>
<path d="M44.4618 24.2153L44.2497 27.1217L40.2486 34.3977C40.0564 34.7217 39.9721 35.0998 40.0081 35.4762C40.0442 35.8526 40.1987 36.2072 40.4487 36.4876L46.7232 42.2592C46.7232 42.2592 47.9567 42.3002 47.8528 42.8921C47.749 43.4839 48.4082 43.4558 48.4082 43.4558L49.1501 44L49.5516 40.9004C48.2026 37.8426 46.2021 36.9098 44.4618 35.4993C44.4618 35.4993 45.1956 35.2778 45.0408 35.0212C44.8859 34.7646 45.3722 34.7475 45.3722 34.7475C45.3722 34.7475 45.6949 34.7034 45.7145 34.4649C45.7342 34.2264 46.0471 34.1903 46.0471 34.1903L47.8026 32.3964L52.4146 32.1811C52.4146 32.1811 54.3663 27.2175 51.1422 24L44.4618 24.2153Z" fill="#2F2E41"/>
<path d="M48 31L49.6588 50L52.1019 49.8578L53 32.1656L48 31Z" fill="#2F2E41"/>
<path d="M48.3606 9.13118L50.8331 9L51.9815 10.8689C51.9815 10.8689 54.1423 11.241 53.9926 13.8634C53.8428 16.4858 51.3635 18.7869 51.3635 18.7869L51.4695 20.1525L51.2854 20.6942L51.309 20.9983L51.5601 21.3204L51.586 21.6536L51.3635 22.1806L51.4534 22.8851C51.4534 22.8851 49.2163 23.3425 48.043 22.4319C46.8697 21.5213 45.138 22.0459 45.138 22.0459L45.0728 21.1779L45.4121 20.7093L45.2226 20.0981L45.5075 19.5102L45.6561 17.6429C45.6561 17.6429 44.0307 15.1279 45.8966 13.2336L46.6455 11.9224L47.4834 10.8695L48.3606 9.13118Z" fill="#0F21FF"/>
<path d="M55 20.6642L54.7644 14.0366C54.7534 13.7558 54.605 13.4898 54.3513 13.2959C54.0977 13.102 53.759 12.9957 53.4084 13.0001V13.0001C53.2271 13.0024 53.0482 13.0342 52.8827 13.0937C52.7172 13.1532 52.5686 13.239 52.4459 13.346C52.3231 13.453 52.2289 13.5789 52.1689 13.7161C52.1088 13.8532 52.0843 13.9987 52.0968 14.1436L52.6049 21.0221L52.6938 25.2121C52.4749 25.2897 52.2912 25.4195 52.1676 25.5837C52.0439 25.7479 51.9864 25.9386 52.0027 26.1299C52.0191 26.3212 52.1085 26.5039 52.259 26.653C52.4094 26.8022 52.6135 26.9106 52.8435 26.9636C53.0735 27.0166 53.3183 27.0116 53.5447 26.9492C53.771 26.8869 53.9679 26.7702 54.1086 26.6151C54.2493 26.4599 54.3269 26.2738 54.331 26.0821C54.3351 25.8904 54.2655 25.7023 54.1315 25.5434L55 20.6642Z" fill="#FFB6B6"/>
<path d="M55.661 15.686C55.7227 15.6297 55.7621 15.5567 55.7732 15.4783C55.7843 15.3998 55.7665 15.3203 55.7224 15.2519C55.6699 15.1665 55.6482 15.0685 55.6606 14.9716C55.6632 14.9529 55.6672 14.9343 55.6726 14.9161C55.7077 14.8069 55.7129 14.6916 55.6879 14.5802C55.6628 14.4687 55.6082 14.3643 55.5287 14.2759C55.2624 13.9883 55.1338 13.5529 55.0781 13.1647C55.0172 12.74 54.981 12.3059 54.8088 11.9066C54.5604 11.3306 53.9667 10.8173 53.1564 11.063C52.8136 11.1723 52.5232 11.3845 52.3341 11.6638C51.93 12.2432 51.9256 12.9436 51.9286 13.6138L51.7833 13.349C51.8007 14.0809 51.6535 14.8084 51.3506 15.4879C51.5312 15.4564 51.659 15.6746 51.6006 15.8315C51.5421 15.9883 51.3808 16.0914 51.2426 16.2005C51.0683 16.3381 50.9037 16.5424 51.0673 16.7525C51.108 16.8018 51.1595 16.843 51.2188 16.8735C51.278 16.904 51.3436 16.9232 51.4115 16.9298C52.6909 17.0793 53.9909 16.9894 55.2298 16.6656C55.5049 16.5935 55.7998 16.4934 55.943 16.2702C56.0862 16.0471 55.9475 15.6824 55.661 15.686Z" fill="#0F21FF"/>
<path d="M49.5 9C50.8807 9 52 7.88071 52 6.5C52 5.11929 50.8807 4 49.5 4C48.1193 4 47 5.11929 47 6.5C47 7.88071 48.1193 9 49.5 9Z" fill="#FFB6B6"/>
<path d="M24 6C25.6569 6 27 4.65685 27 3C27 1.34315 25.6569 0 24 0C22.3431 0 21 1.34315 21 3C21 4.65685 22.3431 6 24 6Z" fill="#0F21FF"/>
<path d="M23.7381 4C23.7049 4 23.6722 3.99227 23.6425 3.97743C23.6129 3.96258 23.5871 3.94103 23.5672 3.91448L23.043 3.21544C23.0261 3.19299 23.0138 3.16743 23.0068 3.14021C22.9997 3.11299 22.9982 3.08466 23.0021 3.05684C23.0061 3.02901 23.0155 3.00224 23.0298 2.97805C23.0441 2.95386 23.063 2.93273 23.0855 2.91587C23.108 2.89901 23.1336 2.88674 23.1608 2.87978C23.188 2.87282 23.2163 2.8713 23.2441 2.8753C23.272 2.8793 23.2987 2.88875 23.3229 2.9031C23.347 2.91746 23.3681 2.93643 23.3849 2.95895L23.7279 3.41624L24.6087 2.09485C24.6402 2.0478 24.689 2.01516 24.7446 2.00411C24.8001 1.99306 24.8577 2.00449 24.9048 2.0359C24.9519 2.06731 24.9847 2.11613 24.9958 2.17164C25.007 2.22716 24.9956 2.28483 24.9643 2.332L23.916 3.90481C23.897 3.93325 23.8715 3.95673 23.8416 3.97328C23.8117 3.98983 23.7782 3.99897 23.7441 3.99993L23.7381 4Z" fill="white"/>
<path d="M28.9127 11H17.0863C16.7982 11 16.5219 10.8946 16.3182 10.7071C16.1144 10.5196 16 10.2652 16 10C16 9.73478 16.1144 9.48043 16.3182 9.29289C16.5219 9.10536 16.7982 9 17.0863 9H28.9127C29.0554 8.99987 29.1968 9.02564 29.3287 9.07584C29.4606 9.12604 29.5805 9.19968 29.6815 9.29255C29.7824 9.38542 29.8626 9.4957 29.9172 9.61709C29.9719 9.73848 30 9.8686 30 10C30 10.1314 29.9719 10.2615 29.9172 10.3829C29.8626 10.5043 29.7824 10.6146 29.6815 10.7075C29.5805 10.8003 29.4606 10.874 29.3287 10.9242C29.1968 10.9744 29.0554 11.0001 28.9127 11V11Z" fill="#0F21FF"/>
<path d="M53 5.15248V5.71542H50.8679C50.8895 5.60675 50.8895 5.49454 50.868 5.38585C50.8464 5.27716 50.8037 5.17433 50.7425 5.08381C50.7408 5.30412 50.6886 5.52077 50.5904 5.71542C49.3575 6.09852 48.3227 6.09118 47.4747 5.71542C47.3488 5.71542 47.2281 5.66286 47.139 5.56931C47.05 5.47576 47 5.34887 47 5.21656C47 3.49061 48.2947 2.03628 49.9368 2.00071C50.336 1.99182 50.7329 2.06678 51.1042 2.22119C51.4755 2.37559 51.8137 2.60634 52.099 2.89989C52.3843 3.19345 52.6109 3.5439 52.7657 3.93071C52.9204 4.31752 53 4.7329 53 5.15249V5.15248Z" fill="#2F2E41"/>
<path d="M25.5 24H20.5C20.3674 24 20.2402 23.9473 20.1464 23.8536C20.0527 23.7598 20 23.6326 20 23.5C20 23.3674 20.0527 23.2402 20.1464 23.1464C20.2402 23.0527 20.3674 23 20.5 23H25.5C25.6326 23 25.7598 23.0527 25.8536 23.1464C25.9473 23.2402 26 23.3674 26 23.5C26 23.6326 25.9473 23.7598 25.8536 23.8536C25.7598 23.9473 25.6326 24 25.5 24Z" fill="white"/>
<path d="M32.5556 15H18.4444C18.3266 15 18.2135 14.9473 18.1302 14.8536C18.0468 14.7598 18 14.6326 18 14.5C18 14.3674 18.0468 14.2402 18.1302 14.1464C18.2135 14.0527 18.3266 14 18.4444 14H32.5556C32.6734 14 32.7865 14.0527 32.8698 14.1464C32.9532 14.2402 33 14.3674 33 14.5C33 14.6326 32.9532 14.7598 32.8698 14.8536C32.7865 14.9473 32.6734 15 32.5556 15Z" fill="white"/>
<path d="M23.8222 17H18.1778C18.1306 17 18.0854 16.9473 18.0521 16.8536C18.0187 16.7598 18 16.6326 18 16.5C18 16.3674 18.0187 16.2402 18.0521 16.1464C18.0854 16.0527 18.1306 16 18.1778 16H23.8222C23.8694 16 23.9146 16.0527 23.9479 16.1464C23.9813 16.2402 24 16.3674 24 16.5C24 16.6326 23.9813 16.7598 23.9479 16.8536C23.9146 16.9473 23.8694 17 23.8222 17Z" fill="white"/>
<path d="M13 19C14.6569 19 16 17.6569 16 16C16 14.3431 14.6569 13 13 13C11.3431 13 10 14.3431 10 16C10 17.6569 11.3431 19 13 19Z" fill="white"/>
</svg>
