<svg width="78" height="57" viewBox="0 0 78 57" fill="none" xmlns="http://www.w3.org/2000/svg">
<path d="M47.0944 27C46.8523 26.9996 46.6195 26.9106 46.443 26.7508C46.2665 26.591 46.1595 26.3725 46.1436 26.1395L46.002 24.0534C45.9855 23.8097 46.07 23.5697 46.2368 23.3861C46.4037 23.2025 46.6393 23.0904 46.8918 23.0745L63.8308 22.0041C64.3698 21.9704 64.9006 22.1447 65.3065 22.4884C65.7125 22.8322 65.9603 23.3175 65.9956 23.8375C66.0309 24.3576 65.8508 24.8699 65.4948 25.2618C65.1388 25.6538 64.636 25.8933 64.0971 25.9277L47.1582 26.998C47.1368 26.9993 47.1156 27 47.0944 27Z" fill="#0F21FF"/>
<path d="M50.0773 27C49.8299 26.9996 49.5923 26.9149 49.4141 26.7636C49.236 26.6123 49.1312 26.4061 49.1217 26.1882L49.0007 23.3347C48.996 23.224 49.0161 23.1136 49.0598 23.0098C49.1035 22.906 49.17 22.8108 49.2554 22.7296C49.3409 22.6485 49.4437 22.5829 49.5578 22.5368C49.672 22.4906 49.7954 22.4648 49.921 22.4606L63.8865 22.0006C64.1401 21.9922 64.387 22.073 64.573 22.2251C64.759 22.3772 64.8688 22.5882 64.8783 22.8117L64.9993 25.6653C65.004 25.776 64.9839 25.8863 64.9402 25.9901C64.8965 26.094 64.83 26.1892 64.7446 26.2703C64.6591 26.3515 64.5563 26.417 64.4422 26.4632C64.328 26.5093 64.2046 26.5352 64.079 26.5393L50.1134 26.9994C50.1014 26.9998 50.0893 27 50.0773 27Z" fill="#2F2E41"/>
<path d="M67.0634 57H64.9366C64.6883 56.9997 64.4502 56.8989 64.2746 56.7197C64.099 56.5406 64.0003 56.2976 64 56.0442V37.9558C64.0003 37.7024 64.099 37.4594 64.2746 37.2803C64.4502 37.1011 64.6883 37.0003 64.9366 37H67.0634C67.3117 37.0003 67.5498 37.1011 67.7254 37.2803C67.901 37.4594 67.9997 37.7024 68 37.9558V56.0442C67.9997 56.2976 67.901 56.5406 67.7254 56.7197C67.5498 56.8989 67.3117 56.9997 67.0634 57Z" fill="#2F2E41"/>
<path d="M61.0634 57H58.9366C58.6883 56.9997 58.4502 56.8989 58.2746 56.7197C58.099 56.5406 58.0003 56.2976 58 56.0442V37.9558C58.0003 37.7024 58.099 37.4594 58.2746 37.2803C58.4502 37.1011 58.6883 37.0003 58.9366 37H61.0634C61.3117 37.0003 61.5498 37.1011 61.7254 37.2803C61.901 37.4594 61.9997 37.7024 62 37.9558V56.0442C61.9997 56.2976 61.901 56.5406 61.7254 56.7197C61.5498 56.8989 61.3117 56.9997 61.0634 57Z" fill="#2F2E41"/>
<path d="M63.5 18C67.6421 18 71 14.6421 71 10.5C71 6.35786 67.6421 3 63.5 3C59.3579 3 56 6.35786 56 10.5C56 14.6421 59.3579 18 63.5 18Z" fill="#0F21FF"/>
<path d="M59.5876 13.7752C59.2058 13.6816 58.8553 13.528 58.5596 13.3248C58.3638 13.1797 58.2127 13.0044 58.1172 12.8111C58.0216 12.6179 57.9838 12.4114 58.0063 12.2061C58.0188 12.0598 58.0763 11.9176 58.1745 11.7907C58.2727 11.6638 58.4089 11.5555 58.5725 11.4744C58.9969 11.2712 59.5646 11.2706 60.1426 11.4607L60.1207 8.00166L60.5861 8L60.6119 12.0665L60.2532 11.8981C59.8374 11.7031 59.2435 11.5659 58.8238 11.7669C58.7201 11.82 58.6342 11.8903 58.5728 11.9722C58.5114 12.0541 58.4761 12.1455 58.4697 12.2393C58.454 12.3922 58.4826 12.5459 58.5536 12.6898C58.6246 12.8338 58.7363 12.9646 58.8811 13.0734C59.3951 13.4399 60.1449 13.5545 61 13.657L60.9262 14C60.4719 13.9551 60.0239 13.8798 59.5876 13.7752Z" fill="#2F2E41"/>
<path d="M56.8851 8.37486L56.8467 8.66602L58.415 8.87314L58.4535 8.58198L56.8851 8.37486Z" fill="#2F2E41"/>
<path d="M61.8344 9.02818L61.7959 9.31934L63.3642 9.52646L63.4027 9.2353L61.8344 9.02818Z" fill="#2F2E41"/>
<path d="M57.2379 43H57.2379C56.9097 42.9996 56.595 42.8724 56.363 42.6462C56.1309 42.4201 56.0004 42.1134 56 41.7935C56 41.7935 57.9735 31.3578 59.1012 25.2413C59.3204 24.0519 59.9615 22.9754 60.9126 22.2001C61.8636 21.4248 63.064 21 64.3039 21H64.3039C66.0798 21 67.783 21.6876 69.0388 22.9115C70.2945 24.1354 71 25.7953 71 27.5262V29.5871C71 33.1444 69.5501 36.5561 66.9692 39.0715C64.3883 41.5869 60.8878 43 57.2379 43Z" fill="#2F2E41"/>
<path d="M66.7787 42.4419C66.706 42.6096 66.589 42.7514 66.4417 42.8504C66.2945 42.9495 66.1233 43.0014 65.9488 43L63.8961 42.9811C63.7774 42.9801 63.6601 42.9543 63.5508 42.9053C63.4415 42.8563 63.3424 42.785 63.2592 42.6955C63.176 42.606 63.1103 42.5001 63.0658 42.3838C63.0213 42.2675 62.999 42.143 63 42.0176L63.1395 25.0233C63.1415 24.7554 63.1935 24.4905 63.2925 24.2437C63.3915 23.997 63.5355 23.7733 63.7163 23.5854C63.8971 23.3975 64.1111 23.2491 64.3462 23.1487C64.5813 23.0483 64.8329 22.9978 65.0864 23.0001C65.34 23.0024 65.5907 23.0575 65.8241 23.1622C66.0575 23.267 66.2691 23.4193 66.4468 23.6104C66.6245 23.8016 66.7648 24.0279 66.8597 24.2764C66.9546 24.5249 67.0023 24.7907 66.9999 25.0587L66.8606 42.0529C66.8596 42.1873 66.8317 42.3198 66.7787 42.4419Z" fill="#0F21FF"/>
<path d="M67.783 37.4383C67.7026 37.6071 67.5733 37.7498 67.4105 37.8495C67.2478 37.9491 67.0585 38.0014 66.8657 38L62.9905 37.9676C62.7256 37.9651 62.4725 37.8616 62.2869 37.6798C62.1012 37.498 61.998 37.2527 62 36.9978L62.1266 22.9531C62.1277 22.8269 62.1547 22.7021 62.2059 22.5858C62.2572 22.4696 62.3318 22.3642 62.4253 22.2757C62.5189 22.1872 62.6297 22.1173 62.7514 22.07C62.873 22.0227 63.0032 21.9989 63.1344 22L67.0095 22.0324C67.1407 22.0334 67.2704 22.0594 67.3912 22.1087C67.512 22.158 67.6215 22.2298 67.7135 22.3198C67.8055 22.4099 67.8781 22.5165 67.9272 22.6336C67.9764 22.7506 68.0011 22.8759 68 23.0021L67.8735 37.0469C67.8724 37.182 67.8415 37.3154 67.783 37.4383Z" fill="#2F2E41"/>
<path d="M61.4684 6.62177C60.2887 6.82902 58.9717 7.06599 57.8476 6.49978C56.9629 6.0541 56.3546 5.16399 56.5701 4.11813C56.9989 2.03673 59.301 1.11652 61.1511 1.30223C62.2391 1.40737 63.2622 1.88486 64.0587 2.65922C64.0964 2.69628 64.1438 2.72121 64.1949 2.73102C64.2461 2.74082 64.2989 2.73507 64.347 2.71446C64.395 2.69385 64.4363 2.65927 64.4658 2.61489C64.4952 2.57052 64.5117 2.51825 64.513 2.46442C64.5052 1.69638 65.0603 1.05548 65.7181 0.766166C66.5416 0.403936 67.4985 0.533381 68.3449 0.727224C70.6608 1.26183 72.7641 2.5148 74.374 4.31892C75.984 6.12304 77.0242 8.3925 77.3556 10.8244C77.5914 12.5365 77.465 14.2811 76.9852 15.9376C76.5362 17.4646 75.7069 18.9993 74.3415 19.8301C73.1112 20.5787 71.3221 20.7715 70.1868 19.7212C69.2773 18.8799 68.8674 17.3072 69.6135 16.2188C69.8334 15.9032 70.1316 15.655 70.4766 15.5006C70.8217 15.3462 71.2006 15.2913 71.5734 15.3417C71.9259 15.3994 72.255 15.5606 72.5217 15.806C72.7883 16.0515 72.9814 16.3711 73.0778 16.7267C73.1487 17.0682 73.1268 17.4234 73.0147 17.7528C72.9027 18.0823 72.7047 18.3732 72.4428 18.5935C72.247 18.7391 72.0247 18.8419 71.7892 18.8957C71.5538 18.9495 71.3103 18.9531 71.0735 18.9063C70.8367 18.8595 70.6116 18.7633 70.4119 18.6235C70.2121 18.4838 70.042 18.3034 69.9118 18.0933C69.731 17.7931 69.2703 18.0693 69.4522 18.3714C69.661 18.7096 69.9472 18.9892 70.2853 19.1855C70.6235 19.3818 71.0032 19.4888 71.3908 19.497C71.7772 19.5043 72.1585 19.4052 72.4957 19.2097C72.8328 19.0143 73.1137 18.7296 73.3096 18.3848C73.5197 18.0329 73.6365 17.63 73.6483 17.2166C73.6601 16.8031 73.5665 16.3938 73.3769 16.0297C73.1696 15.6583 72.8743 15.3478 72.5188 15.1275C72.1633 14.9072 71.7595 14.7843 71.3453 14.7705C70.9158 14.767 70.4918 14.8717 70.1101 15.0755C69.7283 15.2794 69.4001 15.5763 69.1539 15.9407C68.7555 16.5712 68.6085 17.3369 68.7438 18.0771C68.8638 18.83 69.2159 19.5224 69.7474 20.051C70.3628 20.6276 71.1549 20.961 71.9843 20.9927C73.7891 21.0993 75.4003 20.023 76.3958 18.527C77.4287 16.9747 77.8906 15.0267 77.9837 13.1644C78.0785 11.2662 77.7585 9.37038 77.0475 7.61796C76.3365 5.86554 75.2528 4.30167 73.877 3.04277C72.5686 1.85735 71.034 0.969844 69.3728 0.437806C67.7285 -0.0835742 65.4327 -0.46362 64.3222 1.27545C64.0963 1.62762 63.9774 2.04171 63.9807 2.46444L64.4351 2.26963C62.8285 0.680494 60.3029 0.27894 58.2967 1.25577C57.2891 1.7464 56.4156 2.65872 56.1024 3.78361C55.7774 4.95078 56.2473 6.09634 57.2111 6.75829C58.5227 7.65914 60.1493 7.40969 61.6099 7.15309C61.9469 7.09388 61.804 6.56283 61.4684 6.62179V6.62177Z" fill="#2F2E41"/>
<path d="M45.4233 39H2.57669C1.89355 38.9992 1.23861 38.7255 0.755554 38.2389C0.2725 37.7522 0.000779397 37.0925 0 36.4043V10.5957C0.000779397 9.90751 0.2725 9.24774 0.755554 8.76113C1.23861 8.27451 1.89355 8.00079 2.57669 8H45.4233C46.1065 8.00079 46.7614 8.27451 47.2444 8.76113C47.7275 9.24774 47.9992 9.90751 48 10.5957V36.4043C47.9992 37.0925 47.7275 37.7522 47.2444 38.2389C46.7614 38.7255 46.1065 38.9992 45.4233 39ZM2.57669 8.44498C2.01066 8.44563 1.468 8.67243 1.06775 9.07563C0.667511 9.47883 0.442368 10.0255 0.441718 10.5957V36.4043C0.442368 36.9745 0.667511 37.5212 1.06775 37.9244C1.468 38.3276 2.01066 38.5544 2.57669 38.555H45.4233C45.9893 38.5544 46.532 38.3276 46.9322 37.9244C47.3325 37.5212 47.5576 36.9745 47.5583 36.4043V10.5957C47.5576 10.0255 47.3325 9.47883 46.9322 9.07563C46.532 8.67243 45.9893 8.44563 45.4233 8.44498H2.57669Z" fill="#3F3D56"/>
<path d="M8 14C7.60444 14 7.21776 13.912 6.88886 13.7472C6.55996 13.5824 6.30362 13.3481 6.15224 13.074C6.00087 12.7999 5.96126 12.4983 6.03843 12.2074C6.1156 11.9164 6.30608 11.6491 6.58579 11.4393C6.86549 11.2296 7.22186 11.0867 7.60982 11.0288C7.99778 10.9709 8.39991 11.0006 8.76537 11.1142C9.13082 11.2277 9.44318 11.42 9.66294 11.6666C9.8827 11.9133 10 12.2033 10 12.5C9.9994 12.8977 9.7885 13.279 9.41356 13.5602C9.03861 13.8414 8.53025 13.9996 8 14ZM8 11.36C7.69937 11.36 7.4055 11.4269 7.15553 11.5521C6.90557 11.6774 6.71075 11.8554 6.5957 12.0637C6.48066 12.272 6.45056 12.5013 6.50921 12.7224C6.56786 12.9435 6.71262 13.1467 6.9252 13.3061C7.13777 13.4655 7.40861 13.5741 7.70346 13.6181C7.99831 13.6621 8.30394 13.6395 8.58168 13.5532C8.85942 13.4669 9.09681 13.3208 9.26383 13.1334C9.43085 12.9459 9.52 12.7255 9.52 12.5C9.51954 12.1978 9.35925 11.908 9.0743 11.6943C8.78934 11.4806 8.40299 11.3603 8 11.36Z" fill="#3F3D56"/>
<path d="M39 14C38.6044 14 38.2178 13.912 37.8889 13.7472C37.56 13.5824 37.3036 13.3481 37.1522 13.074C37.0009 12.7999 36.9613 12.4983 37.0384 12.2074C37.1156 11.9164 37.3061 11.6491 37.5858 11.4393C37.8655 11.2296 38.2219 11.0867 38.6098 11.0288C38.9978 10.9709 39.3999 11.0006 39.7654 11.1142C40.1308 11.2277 40.4432 11.42 40.6629 11.6666C40.8827 11.9133 41 12.2033 41 12.5C40.9994 12.8977 40.7885 13.279 40.4136 13.5602C40.0386 13.8414 39.5303 13.9996 39 14ZM39 11.36C38.6994 11.36 38.4055 11.4269 38.1555 11.5521C37.9056 11.6774 37.7108 11.8554 37.5957 12.0637C37.4807 12.272 37.4506 12.5013 37.5092 12.7224C37.5679 12.9435 37.7126 13.1467 37.9252 13.3061C38.1378 13.4655 38.4086 13.5741 38.7035 13.6181C38.9983 13.6621 39.3039 13.6395 39.5817 13.5532C39.8594 13.4669 40.0968 13.3208 40.2638 13.1334C40.4308 12.9459 40.52 12.7255 40.52 12.5C40.5195 12.1978 40.3593 11.908 40.0743 11.6943C39.7893 11.4806 39.403 11.3603 39 11.36Z" fill="#3F3D56"/>
<path d="M12.6831 25H4.3169C3.96776 24.9996 3.63305 24.8716 3.38617 24.6439C3.13929 24.4163 3.00041 24.1076 3 23.7857V19.2143C3.00042 18.8924 3.13929 18.5837 3.38617 18.3561C3.63305 18.1284 3.96776 18.0004 4.3169 18H12.6831C13.0322 18.0004 13.367 18.1284 13.6138 18.3561C13.8607 18.5837 13.9996 18.8924 14 19.2143V23.7857C13.9996 24.1076 13.8607 24.4163 13.6138 24.6439C13.367 24.8716 13.0322 24.9996 12.6831 25Z" fill="#FEB469"/>
<path d="M27.6831 25H19.3169C18.9678 24.9996 18.633 24.8716 18.3862 24.6439C18.1393 24.4163 18.0004 24.1076 18 23.7857V19.2143C18.0004 18.8924 18.1393 18.5837 18.3862 18.3561C18.633 18.1284 18.9678 18.0004 19.3169 18H27.6831C28.0322 18.0004 28.367 18.1284 28.6138 18.3561C28.8607 18.5837 28.9996 18.8924 29 19.2143V23.7857C28.9996 24.1076 28.8607 24.4163 28.6138 24.6439C28.367 24.8716 28.0322 24.9996 27.6831 25Z" fill="#FEB469"/>
<path d="M35.087 18C34.7988 18.0003 34.5225 18.1181 34.3187 18.3275C34.1149 18.5369 34.0003 18.8209 34 19.117V23.883C34.0003 24.1791 34.1149 24.4631 34.3187 24.6725C34.5225 24.8819 34.7988 24.9997 35.087 25H42.913C43.2012 24.9997 43.4775 24.8819 43.6813 24.6725C43.8851 24.4631 43.9997 24.1791 44 23.883V19.117C43.9997 18.8209 43.8851 18.5369 43.6813 18.3275C43.4775 18.1181 43.2012 18.0003 42.913 18H35.087Z" fill="#FEB469"/>
<path d="M12.6831 35H4.3169C3.96776 34.9996 3.63305 34.8532 3.38617 34.5931C3.13929 34.3329 3.00041 33.9802 3 33.6122V28.3878C3.00042 28.0198 3.13929 27.6671 3.38617 27.4069C3.63305 27.1468 3.96776 27.0004 4.3169 27H12.6831C13.0322 27.0004 13.367 27.1468 13.6138 27.4069C13.8607 27.6671 13.9996 28.0198 14 28.3878V33.6122C13.9996 33.9802 13.8607 34.3329 13.6138 34.5931C13.367 34.8532 13.0322 34.9996 12.6831 35Z" fill="#FEB469"/>
<path d="M27.6831 35H19.3169C18.9678 34.9996 18.633 34.8532 18.3862 34.5931C18.1393 34.3329 18.0004 33.9802 18 33.6122V28.3878C18.0004 28.0198 18.1393 27.6671 18.3862 27.4069C18.633 27.1468 18.9678 27.0004 19.3169 27H27.6831C28.0322 27.0004 28.367 27.1468 28.6138 27.4069C28.8607 27.6671 28.9996 28.0198 29 28.3878V33.6122C28.9996 33.9802 28.8607 34.3329 28.6138 34.5931C28.367 34.8532 28.0322 34.9996 27.6831 35Z" fill="#FEB469"/>
<path d="M42.8028 35H35.1972C34.8798 34.9996 34.5755 34.8532 34.3511 34.5931C34.1266 34.3329 34.0004 33.9802 34 33.6122V28.3878C34.0004 28.0198 34.1266 27.6671 34.3511 27.4069C34.5755 27.1468 34.8798 27.0004 35.1972 27H42.8028C43.1202 27.0004 43.4245 27.1468 43.6489 27.4069C43.8734 27.6671 43.9996 28.0198 44 28.3878V33.6122C43.9996 33.9802 43.8734 34.3329 43.6489 34.5931C43.4245 34.8532 43.1202 34.9996 42.8028 35Z" fill="#FEB469"/>
<path d="M8.13119 24C7.92365 24.0004 7.72163 23.9238 7.55559 23.7819L7.5453 23.7731L5.37727 21.882C5.17449 21.7048 5.04176 21.4429 5.0083 21.1541C4.97484 20.8652 5.04338 20.573 5.19885 20.3418C5.35431 20.1106 5.58397 19.9593 5.83729 19.9211C6.09061 19.883 6.34686 19.9611 6.54964 20.1384L7.95391 21.3662L11.2723 16.43C11.3492 16.3155 11.4452 16.2195 11.5547 16.1474C11.6642 16.0752 11.7851 16.0283 11.9105 16.0095C12.0358 15.9906 12.1633 16 12.2854 16.0373C12.4076 16.0746 12.5221 16.1389 12.6225 16.2266L12.6228 16.2269L12.6022 16.2595L12.6233 16.2269C12.8258 16.4043 12.9583 16.6661 12.9917 16.9548C13.0251 17.2435 12.9567 17.5355 12.8015 17.7668L8.89836 23.5703C8.80806 23.704 8.69196 23.8122 8.55906 23.8865C8.42617 23.9608 8.28005 23.9992 8.13203 23.9987L8.13119 24Z" fill="#0F21FF"/>
<path d="M23.5226 33C23.2891 33.0003 23.0618 32.9334 22.875 32.8091L22.8635 32.8014L20.4244 31.1468C20.1963 30.9917 20.047 30.7625 20.0093 30.5098C19.9717 30.2571 20.0488 30.0014 20.2237 29.7991C20.3986 29.5968 20.657 29.4644 20.942 29.431C21.2269 29.3976 21.5152 29.466 21.7433 29.6211L23.3232 30.6955L27.0563 26.3762C27.1429 26.2761 27.2508 26.1921 27.374 26.1289C27.4972 26.0658 27.6332 26.0248 27.7743 26.0083C27.9153 25.9918 28.0587 26 28.1961 26.0326C28.3335 26.0652 28.4624 26.1215 28.5753 26.1983L28.5756 26.1985L28.5525 26.227L28.5763 26.1985C28.8041 26.3538 28.9531 26.5829 28.9907 26.8355C29.0283 27.0881 28.9513 27.3436 28.7767 27.5459L24.3857 32.624C24.2841 32.741 24.1535 32.8357 24.0039 32.9007C23.8544 32.9657 23.69 32.9993 23.5235 32.9989L23.5226 33Z" fill="#0F21FF"/>
<path d="M39.1312 24C38.9237 24.0004 38.7216 23.9238 38.5556 23.7819L38.5453 23.7731L36.3773 21.882C36.1745 21.7048 36.0418 21.4429 36.0083 21.1541C35.9748 20.8652 36.0434 20.573 36.1988 20.3418C36.3543 20.1106 36.584 19.9593 36.8373 19.9211C37.0906 19.883 37.3469 19.9611 37.5496 20.1384L38.9539 21.3662L42.2723 16.43C42.3492 16.3155 42.4452 16.2195 42.5547 16.1474C42.6642 16.0752 42.7851 16.0283 42.9105 16.0095C43.0358 15.9906 43.1632 16 43.2854 16.0373C43.4076 16.0746 43.5221 16.1389 43.6225 16.2266L43.6228 16.2269L43.6022 16.2595L43.6233 16.2269C43.8258 16.4043 43.9583 16.6661 43.9917 16.9548C44.0251 17.2435 43.9567 17.5355 43.8015 17.7668L39.8984 23.5703C39.8081 23.704 39.692 23.8122 39.5591 23.8865C39.4262 23.9608 39.28 23.9992 39.132 23.9987L39.1312 24Z" fill="#0F21FF"/>
</svg>
