<svg width="86" height="67" viewBox="0 0 86 67" fill="none" xmlns="http://www.w3.org/2000/svg">
<path d="M65.5 61C67.9853 61 70 56.7467 70 51.5C70 46.2533 67.9853 42 65.5 42C63.0147 42 61 46.2533 61 51.5C61 56.7467 63.0147 61 65.5 61Z" fill="#110229"/>
<path d="M65.3035 67C66.8628 56.0347 65.3192 45.109 65.3034 45L65.0001 45.0602C65.0158 45.1687 66.5505 56.037 65 66.9408L65.3035 67Z" fill="#CACACA"/>
<path d="M61.777 49.439L61.6064 49.7578L65.7432 51.9705L65.9137 51.6517L61.777 49.439Z" fill="#CACACA"/>
<path d="M70.1089 50.5468L65.9727 52.7607L66.1433 53.0795L70.2795 50.8655L70.1089 50.5468Z" fill="#CACACA"/>
<path d="M77 55C81.9706 55 86 46.7173 86 36.5C86 26.2827 81.9706 18 77 18C72.0294 18 68 26.2827 68 36.5C68 46.7173 72.0294 55 77 55Z" fill="#0F21FF"/>
<path d="M75.3647 67C79.0255 45.0691 75.4017 23.2182 75.3647 23L75.0001 23.0617C75.037 23.2793 78.6502 45.0715 75 66.9394L75.3647 67Z" fill="#110229"/>
<path d="M68.8365 32.8999L68.666 33.2188L76.7572 37.5466L76.9278 37.2278L68.8365 32.8999Z" fill="#110229"/>
<path d="M85.2971 35.0678L77.207 39.3979L77.3776 39.7167L85.4677 35.3866L85.2971 35.0678Z" fill="#110229"/>
<path d="M56.3386 67H8.6614C8.48605 66.9998 8.31794 66.9288 8.19395 66.8027C8.06995 66.6765 8.0002 66.5054 8 66.327V35.673C8.0002 35.4946 8.06994 35.3235 8.19394 35.1973C8.31793 35.0712 8.48605 35.0002 8.6614 35H56.3386C56.514 35.0002 56.6821 35.0712 56.8061 35.1973C56.93 35.3235 56.9998 35.4946 57 35.673V66.327C56.9998 66.5054 56.93 66.6765 56.806 66.8027C56.6821 66.9288 56.514 66.9998 56.3386 67Z" fill="#FEB469"/>
<path d="M12.2872 39C12.2111 39.0001 12.1381 39.0298 12.0842 39.0826C12.0304 39.1354 12.0001 39.207 12 39.2817V62.7183C12.0001 62.793 12.0304 62.8646 12.0842 62.9174C12.1381 62.9702 12.2111 62.9999 12.2872 63H51.7128C51.7889 62.9999 51.8619 62.9702 51.9158 62.9174C51.9696 62.8646 51.9999 62.793 52 62.7183V39.2817C51.9999 39.207 51.9696 39.1354 51.9158 39.0826C51.8619 39.0298 51.7889 39.0001 51.7128 39H12.2872Z" fill="white"/>
<path d="M52 44.3361V42.8011H46.5134V38H45.0234V42.8011H35.2555V38H33.7655V42.8011H18.6997V38H17.2097V42.8011H12V44.3361H17.2097V50.3056H12V51.8406H17.2097V58.2364H12V59.7714H25.2392V63H26.7293V59.7714H33.7655V63H35.2554V59.7714H52V58.2364H35.2555V51.8406H52V50.3056H46.5134V44.3361H52ZM33.7655 44.3361V46.2122H18.6997V44.3361H33.7655ZM18.6997 47.7472H33.7655V50.3056H18.6997V47.7472ZM18.6997 58.2364V51.8406H25.2392V58.2364H18.6997ZM33.7655 58.2364H26.7293V51.8406H33.7655V58.2364ZM45.0234 50.3056H35.2555V44.3361H45.0234V50.3056Z" fill="#FEB469"/>
<path d="M34.5 53C35.3284 53 36 52.3284 36 51.5C36 50.6716 35.3284 50 34.5 50C33.6716 50 33 50.6716 33 51.5C33 52.3284 33.6716 53 34.5 53Z" fill="#0F21FF"/>
<path d="M34.5 40C40.8513 40 46 34.8513 46 28.5C46 22.1487 40.8513 17 34.5 17C28.1487 17 23 22.1487 23 28.5C23 34.8513 28.1487 40 34.5 40Z" fill="#0F21FF"/>
<path d="M34.5781 47L30.7891 41.0415L27 35.0831L34.5 35.0415L42 35L38.2891 41L34.5781 47Z" fill="#0F21FF"/>
<path d="M35 33C37.2091 33 39 30.9853 39 28.5C39 26.0147 37.2091 24 35 24C32.7909 24 31 26.0147 31 28.5C31 30.9853 32.7909 33 35 33Z" fill="white"/>
<path d="M34.5949 0.0623843C34.5949 0.0623843 32.1369 -0.66942 31.4098 2.87983C30.6828 6.42907 31.1446 5.98188 31.1446 5.98188L36.6319 5.30497C36.6319 5.30497 38.282 1.14179 34.5949 0.0623843Z" fill="#2F2E41"/>
<path d="M30.8524 15C30.8524 15 26.304 15.1765 27.0917 16.6729C27.1473 16.7787 27.1992 16.8778 27.2472 16.9703C27.8102 18.0542 28.4583 19.1056 29.1872 20.1177L31.9827 24L33 23.5263L30.1373 17.2891L32.7104 17.1131L30.8524 15Z" fill="#FFB6B6"/>
<path d="M40.679 17.1702L41.8889 19.7652C41.8889 19.7652 42.7963 20.6586 43.7901 24.232C44.784 27.8055 45 27.6779 45 27.6779L44.0177 28L39.9877 20.7862L38 18.3188L38.6049 17L40.679 17.1702Z" fill="#FFB6B6"/>
<path d="M38.6853 13.9553L40.4279 17.207C40.4279 17.207 44.3787 24.9903 43.9704 24.9644C43.5114 24.9353 42.2221 25.4718 41.8262 25.9925C41.6352 26.2438 38.8431 20.1043 37.8624 18.7317L35.7402 17.0816C35.7402 17.0816 29.7145 18.0984 29.7071 17.7678C29.7035 17.6058 31.7021 21.4915 31.292 21.3194C30.8247 21.1232 29.7256 22.0777 29.241 21.8801C29.0411 21.7986 27.6285 18.3649 27.0566 16.9578C26.9849 16.7822 26.9812 16.586 27.0462 16.4077C27.1112 16.2295 27.2403 16.082 27.4081 15.9941C27.8378 15.7701 33.809 14.4031 33.809 14.4031L33.7046 13.8684L34.1377 13L38.6853 13.9553Z" fill="#2F2E41"/>
<path d="M35.7071 4.22876C35.8583 3.29712 35.2256 2.41932 34.2939 2.26814C33.3623 2.11696 32.4845 2.74964 32.3333 3.68128C32.1821 4.61292 32.8148 5.49072 33.7465 5.6419C34.6781 5.79308 35.5559 5.1604 35.7071 4.22876Z" fill="#FFB6B6"/>
<path d="M39.9902 13.4889C40.0864 13.7383 39.4631 13.8815 38.5943 13.7414C37.8426 13.6202 37.0198 13.4762 36.3708 13.3596C35.6759 13.2346 35.1793 13.1411 35.1793 13.1411C35.1793 13.1411 35.0005 14.1062 34.4195 13.9904C33.919 13.8908 32.4231 9.37795 32.0186 8.13076C31.9891 8.0397 31.9948 7.94278 32.0349 7.85477C32.075 7.76676 32.1473 7.69248 32.2408 7.64324L34.2953 6.55971C34.2953 6.55971 35.7112 6.13973 36.2274 6.12777C36.7436 6.1158 37.6374 6 37.6374 6C37.6374 6 38.6653 6.0772 38.8441 6.73341C39.0229 7.38962 39.7689 11.2804 39.7827 12.2147C39.7978 13.2396 39.7016 12.7411 39.9902 13.4889Z" fill="#CACACA"/>
<path d="M35 2C35 2 34.2208 4.12 32.3117 5L32 3.12L35 2Z" fill="#2F2E41"/>
<path d="M34 24.3993L30.1722 26L30.1499 25.956C29.9683 25.5965 29.951 25.1862 30.1019 24.8152C30.2529 24.4442 30.5596 24.143 30.9548 23.9777L30.9549 23.9777L33.2928 23L34 24.3993Z" fill="#2F2E41"/>
<path d="M43 28.309L45.5876 27.157L45.5877 27.157C46.0251 26.9623 46.5224 26.9481 46.9703 27.1176C47.4182 27.2871 47.7799 27.6263 47.976 28.0606L48 28.1138L43.7633 30L43 28.309Z" fill="#2F2E41"/>
<path opacity="0.2" d="M37.5625 10L37 13.9697L38 14L37.5625 10Z" fill="black"/>
<path d="M34.8209 18.6854C34.8894 18.5845 34.9403 18.465 34.97 18.3354C34.9997 18.2057 35.0075 18.069 34.9928 17.9349C34.9782 17.8009 34.9414 17.6727 34.8852 17.5593C34.8289 17.446 34.7546 17.3504 34.6673 17.2791L33.4257 9L32 9.72006L33.6687 17.6317C33.5878 17.8332 33.5656 18.0669 33.6064 18.2885C33.6472 18.5101 33.7482 18.7043 33.8903 18.8342C34.0323 18.9641 34.2055 19.0207 34.377 18.9932C34.5485 18.9658 34.7065 18.8563 34.8209 18.6854Z" fill="#FFB6B6"/>
<path d="M34.5376 10.6146L31.7551 10.9934C31.6759 11.0042 31.5947 11.0017 31.5169 10.986C31.4391 10.9703 31.3666 10.9419 31.3043 10.9026C31.2421 10.8633 31.1915 10.8141 31.156 10.7583C31.1206 10.7025 31.1011 10.6415 31.0989 10.5794L31.0221 8.40273C30.953 8.08927 31.0475 7.76743 31.2849 7.50777C31.5224 7.24812 31.8833 7.07184 32.2886 7.01761C32.6939 6.96337 33.1105 7.03559 33.447 7.21844C33.7835 7.4013 34.0125 7.67985 34.0837 7.99302L34.9714 10.0521C34.9968 10.1111 35.0054 10.1736 34.9967 10.2354C34.9881 10.2971 34.9623 10.3567 34.9211 10.4101C34.8799 10.4635 34.8244 10.5094 34.7582 10.5447C34.692 10.58 34.6168 10.6038 34.5376 10.6146H34.5376Z" fill="#CACACA"/>
<path d="M36.5183 17.8878C36.6467 17.8271 36.7577 17.7437 36.8433 17.6434C36.929 17.543 36.9874 17.4282 37.0142 17.3069C37.0411 17.1857 37.0358 17.061 36.9988 16.9417C36.9618 16.8223 36.894 16.7112 36.8001 16.6161L38 9L35.8082 9.07147L35.3179 16.5354C35.1374 16.6779 35.0257 16.8708 35.0039 17.0776C34.9821 17.2844 35.0518 17.4907 35.1998 17.6574C35.3477 17.8241 35.5637 17.9396 35.8067 17.9821C36.0497 18.0245 36.3029 17.991 36.5183 17.8878Z" fill="#FFB6B6"/>
<path d="M37.486 9.99624L35.3611 9.74708C35.3007 9.73999 35.2429 9.72301 35.1918 9.69731C35.1407 9.6716 35.0974 9.63777 35.065 9.59812C35.0325 9.55846 35.0116 9.51392 35.0036 9.46752C34.9957 9.42113 35.0009 9.37396 35.0189 9.32924L35.6505 7.76238C35.6997 7.52591 35.8694 7.314 36.1224 7.17312C36.3755 7.03224 36.6912 6.97388 37.0004 7.01085C37.3096 7.04782 37.5871 7.17709 37.7719 7.37032C37.9567 7.56355 38.0338 7.80497 37.9863 8.04164L37.9761 9.67601C37.9758 9.7228 37.9623 9.769 37.9366 9.81145C37.9108 9.85389 37.8734 9.89159 37.8269 9.92198C37.7804 9.95237 37.7259 9.97474 37.667 9.98755C37.6082 10.0004 37.5465 10.0033 37.486 9.99624Z" fill="#CACACA"/>
</svg>
