<svg width="80" height="65" viewBox="0 0 80 65" fill="none" xmlns="http://www.w3.org/2000/svg">
<path opacity="0.2" d="M59 62.4045C61.6032 64.3231 64.8739 65.2324 68.1537 64.9493C71.4335 64.6662 74.4787 63.2118 76.6763 60.8788C78.8739 58.5459 80.0606 55.5077 79.9976 52.3759C79.9346 49.2441 78.6265 46.2513 76.3366 44L59 62.4045Z" fill="#0F21FF"/>
<path opacity="0.3" d="M29.1829 19L14 35.4806C14.8285 37.2537 16.079 38.8039 17.6453 40L34 22.0263C32.658 20.659 31.0077 19.6222 29.1829 19Z" fill="#0F21FF"/>
<path d="M21 42.0331V53H29V42C26.4105 42.9813 23.5962 42.9929 21 42.0331Z" fill="#0F21FF"/>
<path d="M24.5 44C17.6075 44 12 38.1682 12 31C12 23.8318 17.6075 18 24.5 18C31.3925 18 37 23.8318 37 31C37 38.1682 31.3925 44 24.5 44ZM24.5 18.0906C17.6555 18.0906 12.0871 23.8817 12.0871 31C12.0871 38.1182 17.6555 43.9094 24.5 43.9094C31.3445 43.9094 36.9129 38.1182 36.9129 31C36.9129 23.8817 31.3445 18.0906 24.5 18.0906Z" fill="black"/>
<path d="M16 31C16 33.3869 16.9482 35.6761 18.636 37.364C20.3239 39.0518 22.6131 40 25 40V22C22.6131 22 20.3239 22.9482 18.636 24.636C16.9482 26.3239 16 28.6131 16 31Z" fill="#575A89"/>
<path d="M25 22V40C27.3869 40 29.6761 39.0518 31.364 37.364C33.0518 35.6761 34 33.3869 34 31C34 28.6131 33.0518 26.3239 31.364 24.636C29.6761 22.9482 27.3869 22 25 22Z" fill="#FEB469"/>
<path d="M24.5 33C25.3284 33 26 32.3284 26 31.5C26 30.6716 25.3284 30 24.5 30C23.6716 30 23 30.6716 23 31.5C23 32.3284 23.6716 33 24.5 33Z" fill="white"/>
<path d="M24.5 27L24.75 29.5L25 32H24.5H24L24.25 29.5L24.5 27Z" fill="white"/>
<path d="M32 31.572L28 31.7861L24 32L24.0022 31.5001L24.0044 31L28.0022 31.286L32 31.572Z" fill="white"/>
<path d="M37.8479 32C37.616 32 37.5223 31.8586 37.4038 31.6796C37.3741 31.6349 37.342 31.5864 37.3048 31.5352L37.3892 31.4871C37.4271 31.5394 37.4599 31.5889 37.4901 31.6345C37.6082 31.8129 37.6733 31.9111 37.8479 31.9111C38.428 31.9111 38.8998 31.0538 38.8998 30C38.8998 28.9462 38.428 28.0889 37.8479 28.0889C37.513 28.0889 37.2802 28.2722 37.0929 28.6833L37 28.65C37.2048 28.2005 37.4663 28 37.8479 28C38.4831 28 39 28.8972 39 30C39 31.1028 38.4831 32 37.8479 32Z" fill="black"/>
<path opacity="0.2" d="M26 62C32.6274 62 38 61.7761 38 61.5C38 61.2239 32.6274 61 26 61C19.3726 61 14 61.2239 14 61.5C14 61.7761 19.3726 62 26 62Z" fill="#0F21FF"/>
<path opacity="0.2" d="M68 16C69.1046 16 70 14.8807 70 13.5C70 12.1193 69.1046 11 68 11C66.8954 11 66 12.1193 66 13.5C66 14.8807 66.8954 16 68 16Z" fill="#0F21FF"/>
<path opacity="0.2" d="M12.8143 5.2808e-06C10.6667 0.000793348 8.55373 0.536467 6.66938 1.55784C4.78503 2.57921 3.18972 4.05354 2.02994 5.84544C0.870171 7.63735 0.183105 9.6894 0.0318399 11.8132C-0.119425 13.9369 0.269957 16.0643 1.16423 18L17 0.693908C15.6535 0.233243 14.2388 -0.00128325 12.8143 5.2808e-06Z" fill="#0F21FF"/>
<path d="M54 23C55.6569 23 57 21.8807 57 20.5C57 19.1193 55.6569 18 54 18C52.3431 18 51 19.1193 51 20.5C51 21.8807 52.3431 23 54 23Z" fill="#2F2E41"/>
<path d="M50 37.4615C50 37.4615 52.1923 43 52.4231 43C52.6538 43 53 40.9231 53 40.9231L51.6154 37L50 37.4615Z" fill="#FFB9B9"/>
<path opacity="0.1" d="M53 21.7649C53 21.7649 53.6061 24.3059 53.3636 24.79C53.1212 25.274 53.8485 26 53.8485 26H55.5455L56.7576 24.0639L57 23.2169C57 23.2169 56.2727 21.2808 56.3939 21.0388C56.5152 20.7968 53 21.7649 53 21.7649Z" fill="black"/>
<path d="M53.152 38.5758C53.152 38.5758 51.5518 41.455 52.1233 42.9522C52.6948 44.4493 54.8664 51.82 54.8664 51.82C54.8664 51.82 56.1237 55.966 56.1237 56.1963C56.1237 56.4266 57.1523 61.494 57.4952 61.6091C57.8381 61.7243 60.9241 62.0698 61.0384 61.7243C61.1527 61.3788 61.2669 59.5362 60.9241 59.1906C60.5812 58.8451 58.7525 48.1347 58.7525 48.1347L58.5239 44.5645L61.3812 53.4323C61.3812 53.4323 62.1813 58.73 62.5242 59.0755C62.8671 59.421 61.8384 59.7665 62.1813 60.112C62.5242 60.4575 63.7814 61.3788 63.6671 61.7243C63.5528 62.0698 66.4102 62.0698 66.7531 61.8395C67.096 61.6091 66.9817 58.039 66.9817 58.039L65.3816 53.202L63.5528 41.455C63.5528 41.455 62.9814 38 62.5242 38C62.067 38 53.152 38.5758 53.152 38.5758Z" fill="#2F2E41"/>
<path d="M59.9439 61.6583C59.9439 61.6583 58.9159 60.7985 58.4019 61.0441C57.8878 61.2898 56.2173 63.6235 55.7033 63.5007C55.1892 63.3779 54.4182 64.8226 55.7033 64.9454C56.9883 65.0682 59.0444 64.8226 59.0444 64.8226C59.4695 64.8902 59.8987 64.9312 60.3294 64.9454C60.8435 64.9454 62 65.0682 62 64.9454C62 64.8226 61.743 62.0268 61.6145 62.0268C61.486 62.0268 60.0724 62.0268 59.9439 61.6583Z" fill="#2F2E41"/>
<path d="M66.4545 61.1017C66.4545 61.1017 65.5455 60.8729 65.4545 61.1017C65.3636 61.3305 65 62.0168 65 62.1312C65 62.2456 65.1818 63.6182 65.1818 63.7326C65.1818 63.847 65.3636 64.1901 65.5455 64.4189C65.5968 64.4735 65.6332 64.5471 65.6496 64.6292C65.6659 64.7113 65.6613 64.7978 65.6364 64.8765C65.6364 64.8765 68 65.2196 68 64.7621C68 64.3045 67.7273 63.275 67.5455 63.0463C67.3636 62.8175 67 61.2161 66.4545 61.1017Z" fill="#2F2E41"/>
<path d="M54.5 23C55.8807 23 57 21.8807 57 20.5C57 19.1193 55.8807 18 54.5 18C53.1193 18 52 19.1193 52 20.5C52 21.8807 53.1193 23 54.5 23Z" fill="#FFB9B9"/>
<path d="M53.6 25.7019C53.6 25.7019 54.8 26.4886 55.5 25.2523C56.2 24.016 58.4 27.7249 58.4 27.7249L59 39.1887C59 39.1887 57.9 39.3011 56 39.863C54.1 40.425 53.2 39.0763 53.2 39.0763L53.1 32.5577L53.3 29.5231L53 27.0505L53.2 25.5895L53.6 25.7019Z" fill="#FEB469"/>
<path d="M50.6667 27C50.6667 27 50.3333 27.2268 50.25 28.8144C50.1667 30.4021 50 35.1649 50 35.1649L50.2083 38C50.2083 38 50.7917 36.7526 51 37.3196L50.875 35.6186L51 34.5979L50.625 30.1753L50.6667 27Z" fill="#FEB469"/>
<path d="M53.2452 23C53.2452 23 53.0599 23 53.0599 23.7826C53.0599 24.5652 51.1962 25.6832 51.1962 25.6832C51.1962 25.6832 51 26.0187 51 26.9131C51 27.8075 51 29.9317 51.1962 30.6025C51.3924 31.2734 51.6866 33.5094 51.7847 33.733C51.8828 33.9566 51.8828 34.9628 51.6866 35.1864C51.4904 35.41 52.1771 36.7516 52.3732 36.8635C52.5694 36.9753 51.6866 39.8821 52.1771 39.9939C52.6675 40.1057 53.5503 38.6523 53.8446 37.8697C54.1388 37.0871 53.9427 26.2423 53.8446 25.4597C53.7465 24.677 53.2452 23 53.2452 23Z" fill="#575A89"/>
<path d="M56.2162 22.2549C56.2162 22.2549 56.1228 21.7277 56.7466 22.1897C57.3704 22.6517 57.4952 22.9982 57.4952 22.9982C57.4952 22.9982 60.739 22.9982 60.8637 23.3447C60.9885 23.6912 60.7894 26.6398 60.7894 26.6398L62.4289 32.283C62.4289 32.283 64.7313 38.8213 64.9808 39.0523C65.2303 39.2833 62.9847 38.0128 61.7371 38.9368C60.4894 39.8608 58.2438 40.3228 57.9942 39.7453C57.7447 39.1678 55 25.7701 55 25.7701C55 25.7701 55 23.5757 55.3743 23.3447C55.7486 23.1137 56.2162 22.2549 56.2162 22.2549Z" fill="#575A89"/>
<path d="M62.6818 33L62.1364 38.2571L62 38.7143L64.0454 41C64.0454 41 64.4545 39.7429 64.3182 39.2857C64.1818 38.8286 65 33.6857 65 33.6857L62.6818 33Z" fill="#FFB9B9"/>
<path d="M52.2103 19.3418C52.2103 19.3418 51.5844 17.8473 52.492 17.3587L52.7424 18.0197C52.7424 18.0197 55.0269 16.7551 55.6215 17.0425L55.0582 17.7323C55.0582 17.7323 57.7183 17.7323 57.9061 18.6808L56.9672 18.7095C56.9672 18.7095 57.9687 19.3131 58 20.2903L55.9971 20.4053L56.9672 20.9226C56.9672 20.9226 53.337 21.3825 52.4607 20.0604L52.2103 19.3418Z" fill="#2F2E41"/>
<path d="M60 24C60 24 60.8333 24.1087 61.3889 24.8696C61.9444 25.6304 64.7222 30.6304 64.8611 30.8478C65 31.0652 65 34 65 34C65 34 63.0556 33.1304 62.2222 33.6739L62.0833 32.3696L60.2778 27.3696L60 25.7391L60 24Z" fill="#FEB469"/>
</svg>
