<svg width="207" height="262" viewBox="0 0 207 262" fill="none" xmlns="http://www.w3.org/2000/svg">
<g filter="url(#filter0_d_31_23)">
<rect x="54" y="174" width="154" height="99" rx="49.5" transform="rotate(-90 54 174)" fill="#FEB469"/>
</g>
<path d="M84.4545 63C81.4546 63 79 65.4546 79 68.4545V77.1816C79 79.6362 80.5819 81.7088 82.8181 82.3633V130.199C82.8181 131.127 83.5272 131.836 84.4545 131.836C85.3817 131.836 86.0908 131.127 86.0908 130.199V82.3633C88.3272 81.6543 89.909 79.5816 89.909 77.1816V68.4545C89.909 65.4546 87.4544 63 84.4545 63Z" fill="white"/>
<path d="M125.364 63H102.455C101.528 63 100.818 63.7091 100.818 64.6363V75.5453C100.818 76.4726 101.528 77.1816 102.455 77.1816H104.091V121.908C104.091 127.308 108.509 131.726 113.909 131.726C119.309 131.726 123.727 127.308 123.727 121.908V77.1816H125.364C126.291 77.1816 127 76.4726 127 75.5453V64.6363C127 63.7091 126.291 63 125.364 63ZM110.637 113.727C110.637 114.655 109.928 115.364 109.001 115.364C108.074 115.364 107.364 114.655 107.364 113.727V111.545C107.364 110.618 108.074 109.909 109.001 109.909C109.928 109.909 110.637 110.618 110.637 111.545V113.727ZM110.637 102.818C110.637 103.746 109.928 104.455 109.001 104.455C108.074 104.455 107.364 103.746 107.364 102.818V84.2731C107.364 83.3458 108.074 82.6367 109.001 82.6367C109.928 82.6367 110.637 83.3458 110.637 84.2731V102.818ZM123.728 73.909H104.092V66.2727H108.455V68.4545C108.455 69.3817 109.164 70.0908 110.092 70.0908C111.019 70.0908 111.728 69.3817 111.728 68.4545V66.2727H116.092V68.4545C116.092 69.3817 116.801 70.0908 117.728 70.0908C118.655 70.0908 119.364 69.3817 119.364 68.4545V66.2727H123.728V73.909Z" fill="white"/>
<defs>
<filter id="filter0_d_31_23" x="0" y="0" width="207" height="262" filterUnits="userSpaceOnUse" color-interpolation-filters="sRGB">
<feFlood flood-opacity="0" result="BackgroundImageFix"/>
<feColorMatrix in="SourceAlpha" type="matrix" values="0 0 0 0 0 0 0 0 0 0 0 0 0 0 0 0 0 0 127 0" result="hardAlpha"/>
<feOffset dy="34"/>
<feGaussianBlur stdDeviation="27"/>
<feColorMatrix type="matrix" values="0 0 0 0 0 0 0 0 0 0 0 0 0 0 0 0 0 0 0.12 0"/>
<feBlend mode="normal" in2="BackgroundImageFix" result="effect1_dropShadow_31_23"/>
<feBlend mode="normal" in="SourceGraphic" in2="effect1_dropShadow_31_23" result="shape"/>
</filter>
</defs>
</svg>
