<svg width="233" height="187" viewBox="0 0 233 187" fill="none" xmlns="http://www.w3.org/2000/svg">
<g filter="url(#filter0_d_30_17)">
<rect x="54" y="20" width="125" height="79" rx="39.5" fill="#FEB469"/>
</g>
<path d="M111.25 38.1562C111.25 36.9658 112.211 36 113.406 36H120.594C121.789 36 122.75 36.9658 122.75 38.1562C122.75 39.3467 121.789 40.3125 120.594 40.3125H119.156V43.333C121.914 43.7086 124.439 44.7939 126.55 46.3949L128.689 44.2611L127.673 43.245C126.829 42.4023 126.829 41.0375 127.673 40.1957C128.518 39.353 129.884 39.353 130.719 40.1957L135.804 45.2809C136.649 46.1164 136.649 47.482 135.804 48.3266C134.96 49.1711 133.594 49.1711 132.759 48.3266L131.734 47.3113L129.605 49.4496C131.204 51.5609 132.291 54.0855 132.669 56.8438H135.688V55.4062C135.688 54.2113 136.649 53.25 137.844 53.25C139.039 53.25 140 54.2113 140 55.4062V62.5938C140 63.7887 139.039 64.75 137.844 64.75C136.649 64.75 135.688 63.7887 135.688 62.5938V61.1562H132.669C132.291 63.9145 131.204 66.4391 129.605 68.5504L131.734 70.6887L132.759 69.6734C133.594 68.8289 134.96 68.8289 135.804 69.6734C136.649 70.518 136.649 71.8836 135.804 72.7191L130.719 77.8043C129.884 78.6488 128.518 78.6488 127.673 77.8043C126.829 76.9598 126.829 75.5941 127.673 74.7586L128.689 73.7344L126.55 71.6051C124.439 73.2043 121.914 74.2914 119.156 74.6687V77.6875H120.594C121.789 77.6875 122.75 78.6488 122.75 79.8438C122.75 81.0387 121.789 82 120.594 82H113.406C112.211 82 111.25 81.0387 111.25 79.8438C111.25 78.6488 112.211 77.6875 113.406 77.6875H114.844V74.6687C112.086 74.2914 109.561 73.2043 107.45 71.6051L105.311 73.7434L106.327 74.7586C107.171 75.5941 107.171 76.9598 106.327 77.8043C105.482 78.6488 104.116 78.6488 103.281 77.8043L98.1957 72.7191C97.353 71.8836 97.353 70.518 98.1957 69.6734C99.0375 68.8289 100.403 68.8289 101.245 69.6734L102.261 70.6887L104.395 68.5504C102.794 66.4391 101.709 63.9145 101.333 61.1562H98.3125V62.5938C98.3125 63.7887 97.3467 64.75 96.1562 64.75C94.9658 64.75 94 63.7887 94 62.5938V55.4062C94 54.2113 94.9658 53.25 96.1562 53.25C97.3467 53.25 98.3125 54.2113 98.3125 55.4062V56.8438H101.333C101.709 54.0855 102.794 51.5609 104.395 49.4496L102.261 47.3113L101.245 48.3266C100.402 49.1711 99.0375 49.1711 98.1957 48.3266C97.353 47.482 97.353 46.1164 98.1957 45.2809L103.281 40.1957C104.116 39.3539 105.482 39.3539 106.327 40.1957C107.171 41.0375 107.171 42.4032 106.327 43.245L105.311 44.2611L107.45 46.3949C109.561 44.7939 112.086 43.7086 114.844 43.333V40.3125H113.406C112.211 40.3125 111.25 39.3476 111.25 38.1562ZM111.25 51.8125C108.869 51.8125 106.938 53.7441 106.938 56.125C106.938 58.5059 108.869 60.4375 111.25 60.4375C113.631 60.4375 115.562 58.5059 115.562 56.125C115.562 53.7441 113.631 51.8125 111.25 51.8125ZM121.312 65.4688C122.507 65.4688 123.469 64.5074 123.469 63.3125C123.469 62.1176 122.507 61.1562 121.312 61.1562C120.118 61.1562 119.156 62.1176 119.156 63.3125C119.156 64.5074 120.118 65.4688 121.312 65.4688Z" fill="white"/>
<defs>
<filter id="filter0_d_30_17" x="0" y="0" width="233" height="187" filterUnits="userSpaceOnUse" color-interpolation-filters="sRGB">
<feFlood flood-opacity="0" result="BackgroundImageFix"/>
<feColorMatrix in="SourceAlpha" type="matrix" values="0 0 0 0 0 0 0 0 0 0 0 0 0 0 0 0 0 0 127 0" result="hardAlpha"/>
<feOffset dy="34"/>
<feGaussianBlur stdDeviation="27"/>
<feColorMatrix type="matrix" values="0 0 0 0 0 0 0 0 0 0 0 0 0 0 0 0 0 0 0.12 0"/>
<feBlend mode="normal" in2="BackgroundImageFix" result="effect1_dropShadow_30_17"/>
<feBlend mode="normal" in="SourceGraphic" in2="effect1_dropShadow_30_17" result="shape"/>
</filter>
</defs>
</svg>
