<svg width="289" height="213" viewBox="0 0 289 213" fill="none" xmlns="http://www.w3.org/2000/svg">
<g filter="url(#filter0_d_30_18)">
<rect x="54" y="20" width="180.702" height="104.5" rx="52.25" fill="white"/>
</g>
<rect x="82.6719" y="60" width="98" height="9" rx="4.5" fill="#BCD8DF"/>
<rect x="82.6719" y="81" width="73" height="9" rx="4.5" fill="#BCD8DF"/>
<path d="M195.212 75.0527C196.199 75.0548 197.052 75.4262 197.771 76.1671C198.49 76.9079 198.849 77.7841 198.847 78.7957C198.845 79.8074 198.482 80.6822 197.76 81.4201L183.161 96.3318C182.438 97.0696 181.584 97.4375 180.598 97.4355C179.611 97.4334 178.758 97.062 178.039 96.3212L170.77 88.8352C170.051 88.0944 169.692 87.2182 169.695 86.2065C169.697 85.1947 170.059 84.32 170.781 83.5822C171.504 82.8443 172.358 82.4764 173.344 82.4784C174.331 82.4805 175.184 82.8519 175.903 83.5928L180.616 88.447L192.649 76.1565C193.372 75.4186 194.226 75.0507 195.212 75.0527Z" fill="#0F21FF"/>
<defs>
<filter id="filter0_d_30_18" x="0" y="0" width="288.702" height="212.5" filterUnits="userSpaceOnUse" color-interpolation-filters="sRGB">
<feFlood flood-opacity="0" result="BackgroundImageFix"/>
<feColorMatrix in="SourceAlpha" type="matrix" values="0 0 0 0 0 0 0 0 0 0 0 0 0 0 0 0 0 0 127 0" result="hardAlpha"/>
<feOffset dy="34"/>
<feGaussianBlur stdDeviation="27"/>
<feColorMatrix type="matrix" values="0 0 0 0 0 0 0 0 0 0 0 0 0 0 0 0 0 0 0.12 0"/>
<feBlend mode="normal" in2="BackgroundImageFix" result="effect1_dropShadow_30_18"/>
<feBlend mode="normal" in="SourceGraphic" in2="effect1_dropShadow_30_18" result="shape"/>
</filter>
</defs>
</svg>
